#define 10dbd639ae554d469603fe7f37a0f00eOp4AxtcRRsXaJFPT_width 16
#define 10dbd639ae554d469603fe7f37a0f00eOp4AxtcRRsXaJFPT_height 16
static char 10dbd639ae554d469603fe7f37a0f00eOp4AxtcRRsXaJFPT_bits[] = {
  0x00, 0x00, 0x00, 0x08, 0x00, 0x06, 0x08, 0x02, 0x38, 0x02, 0x1C, 0x03, 
  0x9E, 0x02, 0x48, 0x06, 0x80, 0x07, 0x44, 0x0F, 0xD0, 0x0F, 0xFC, 0x0F, 
  0xFC, 0x0F, 0xF8, 0x07, 0xF0, 0x03, 0x00, 0x00, };
